<svg width="25" height="12" viewBox="0 0 25 12" fill="none" xmlns="http://www.w3.org/2000/svg">
<path d="M18.4102 0.160156C19.6582 0.160156 20.1111 0.290198 20.5674 0.53418C21.0237 0.77821 21.3819 1.13648 21.626 1.59277C21.87 2.04902 22 2.502 22 3.75V8.07031C22 9.31831 21.87 9.77129 21.626 10.2275C21.3819 10.6838 21.0237 11.0421 20.5674 11.2861C20.1111 11.5301 19.6582 11.6602 18.4102 11.6602H3.58984C2.34185 11.6602 1.88887 11.5301 1.43262 11.2861C0.976321 11.0421 0.618053 10.6838 0.374023 10.2275C0.130042 9.77129 0 9.31831 0 8.07031V3.75C0 2.502 0.130042 2.04902 0.374023 1.59277C0.618053 1.13648 0.976321 0.77821 1.43262 0.53418C1.88887 0.290198 2.34185 0.160156 3.58984 0.160156H18.4102ZM3.58984 1.16016C2.60305 1.16016 2.25812 1.22683 1.9043 1.41602C1.62227 1.56685 1.40669 1.78243 1.25586 2.06445C1.06668 2.41827 1 2.7632 1 3.75V8.07031C1 9.05711 1.06668 9.40204 1.25586 9.75586C1.40669 10.0379 1.62227 10.2535 1.9043 10.4043C2.25812 10.5935 2.60305 10.6602 3.58984 10.6602H18.4102C19.397 10.6602 19.7419 10.5935 20.0957 10.4043C20.3777 10.2535 20.5933 10.0379 20.7441 9.75586C20.9333 9.40204 21 9.05711 21 8.07031V3.75C21 2.7632 20.9333 2.41827 20.7441 2.06445C20.5933 1.78243 20.3777 1.56685 20.0957 1.41602C19.7419 1.22683 19.397 1.16016 18.4102 1.16016H3.58984ZM23 3.85059C23.0184 3.86001 24.5 4.6217 24.5 5.85059C24.4997 7.08691 23 7.85059 23 7.85059V3.85059Z" fill="black"/>
<rect x="2" y="2.07666" width="18" height="7.66667" rx="1.6" fill="black"/>
</svg>
