<svg width="18" height="12" viewBox="0 0 18 12" fill="none" xmlns="http://www.w3.org/2000/svg">
<path d="M2 7.30029C2.27879 7.30029 2.41826 7.2997 2.53418 7.32275C3.01021 7.41744 3.38187 7.79008 3.47656 8.26611C3.49961 8.38202 3.5 8.52153 3.5 8.80029V9.80029C3.5 10.079 3.49961 10.2186 3.47656 10.3345C3.38178 10.8103 3.01005 11.1822 2.53418 11.2769C2.41826 11.2999 2.27879 11.3003 2 11.3003C1.72121 11.3003 1.58174 11.2999 1.46582 11.2769C0.98995 11.1822 0.618223 10.8103 0.523438 10.3345C0.500385 10.2186 0.5 10.079 0.5 9.80029V8.80029C0.5 8.52153 0.500388 8.38202 0.523438 8.26611C0.618125 7.79008 0.989792 7.41744 1.46582 7.32275C1.58174 7.2997 1.72121 7.30029 2 7.30029ZM6.7998 5.30029C7.07845 5.30029 7.2181 5.29973 7.33398 5.32275C7.81001 5.41744 8.18266 5.79008 8.27734 6.26611C8.30036 6.38199 8.2998 6.52166 8.2998 6.80029V9.80029C8.2998 10.079 8.3004 10.2186 8.27734 10.3345C8.1826 10.8104 7.80996 11.1822 7.33398 11.2769C7.21808 11.2999 7.07854 11.3003 6.7998 11.3003C6.52113 11.3003 6.38152 11.2999 6.26562 11.2769C5.78983 11.1821 5.418 10.8103 5.32324 10.3345C5.30019 10.2186 5.2998 10.079 5.2998 9.80029V6.80029C5.2998 6.52156 5.3002 6.38202 5.32324 6.26611C5.41792 5.79014 5.78968 5.4175 6.26562 5.32275C6.38152 5.2997 6.52113 5.30029 6.7998 5.30029ZM11.4004 3.00049C11.6789 3.00049 11.8187 2.9999 11.9346 3.02295C12.4104 3.11777 12.7823 3.49042 12.877 3.96631C12.8999 4.08217 12.9004 4.22194 12.9004 4.50049V9.80029C12.9004 10.079 12.9 10.2186 12.877 10.3345C12.7822 10.8102 12.4103 11.182 11.9346 11.2769C11.8187 11.2999 11.6789 11.3003 11.4004 11.3003C11.1218 11.3003 10.9821 11.2999 10.8662 11.2769C10.3903 11.1822 10.0176 10.8104 9.92285 10.3345C9.8998 10.2186 9.90039 10.079 9.90039 9.80029V4.50049C9.90039 4.22197 9.89986 4.08216 9.92285 3.96631C10.0175 3.49028 10.3902 3.11764 10.8662 3.02295C10.9821 2.99996 11.1219 3.00049 11.4004 3.00049ZM16.0996 0.600098C16.3782 0.600098 16.5179 0.600522 16.6338 0.623535C17.1098 0.718221 17.4825 1.0899 17.5771 1.56592C17.6002 1.68184 17.5996 1.8213 17.5996 2.1001V9.80029C17.5996 10.079 17.6002 10.2186 17.5771 10.3345C17.4824 10.8104 17.1097 11.1822 16.6338 11.2769C16.5179 11.2999 16.3782 11.3003 16.0996 11.3003C15.8211 11.3003 15.6813 11.2999 15.5654 11.2769C15.0897 11.182 14.7178 10.8102 14.623 10.3345C14.6 10.2186 14.5996 10.079 14.5996 9.80029V2.1001C14.5996 1.82131 14.6 1.68184 14.623 1.56592C14.7177 1.09009 15.0897 0.718382 15.5654 0.623535C15.6813 0.600488 15.8211 0.600098 16.0996 0.600098Z" fill="black"/>
</svg>
